<svg fill="none" viewBox="0 0 120 40" xmlns="http://www.w3.org/2000/svg"><g fill="#00683F"><path d="m97.1365 9.91455h-3.3516c-.3146 0-.5696.24355-.5696.54385v20.7948c0 .3004.255.5439.5696.5439h3.3516c.3145 0 .5695-.2435.5695-.5439v-20.7948c0-.3003-.255-.54385-.5695-.54385z"/><path d="m97.1365 2.19678h-3.3516c-.3146 0-.5696.2435-.5696.54388v3.22775c0 .30038.255.54388.5696.54388h3.3516c.3145 0 .5695-.2435.5695-.54388v-3.22775c0-.30038-.255-.54388-.5695-.54388z"/><path d="m101.351 31.7969c-.315 0-.57-.244-.57-.5439v-28.51429c0-.2999.255-.54389.57-.54389h3.351c.314 0 .57.24399.57.54389v7.18914h5.257c.181 0 .321.06947.396.19315.072.122.067.2779-.013.405-.197.3134-1.717 2.6177-1.911 2.8753-.216.288-.431.288-.678.288l-3.051-.0034v17.5654c0 .2999-.256.5439-.57.5439h-3.351z"/><path d="m67.6073 39.2147c-.3317 0-.6014-.2575-.6014-.5744v-17.8788c0-3.1074 1.2349-6.0132 3.4793-8.1803 2.2321-2.1569 5.2093-3.34634 8.3835-3.34634 6.5418 0 11.8629 5.24404 11.8629 11.68934s-5.0621 11.6893-11.5258 11.6893c-1.4389 0-3.7153-.3981-5.3956-1.5215-.0071-.0051-.1987-.1203-.2963-.2796-.0834-.1355-.0816-.2389-.0816-.3388v-.0458c-.016-1.1199 0-3.7292 0-3.7547 0-.1982.1207-.3422.2892-.3422.1065 0 .22.0542.33.1559 1.4354 1.2606 3.0252 1.8214 5.1543 1.8214 4.0454 0 6.9836-3.1058 6.9836-7.384 0-4.0359-3.1476-7.0807-7.3207-7.0807s-7.2586 2.8652-7.3154 6.8113c0 0-.0195 13.1939-.0195 14.1241 0 .327 0 .4253-.2856.8641-.0586.0898-.3425.466-.6725.9014-.5234.693-1.1763 1.5555-1.4993 2.0282-.44.6421-.7008.6421-.9776.6421z"/><path d="m29.4903 32.5322c-3.1369 0-6.1142-1.2369-8.316-3.4141-2.2055-2.1824-3.3818-5.0628-3.3818-8.1787 0-6.2996 5.3565-11.62153 11.6978-11.62153 4.0614 0 7.1468 2.14843 9.0187 3.94953.1686.161 1.0042.998.9936 1.6317-.0071.4879-.2413.8692-.3424 1.0318l-3.6444 5.9353c-.1828.2711-.5696.5948-1.0504.5948h-9.4019c-.1579 0-.2857-.0644-.3531-.1763-.0674-.1152-.0621-.2575.016-.3829.1987-.3168 1.4354-2.1891 1.6341-2.4517.2165-.288.4311-.288.6778-.288h6.2774c.3708 0 .4932-.039.6565-.3152 0 0 .9829-1.6622 1.2278-2.0671.0851-.1406.1135-.3507-.0621-.5151-2.3456-2.1772-4.5475-2.5025-5.6511-2.5025-4.166 0-7.3083 3.1159-7.3083 7.2484 0 2.0044.6867 3.8445 1.9322 5.1813 1.336 1.4351 3.1955 2.2078 5.3761 2.2078 1.9978 0 3.6852-.1322 5.7043-2.2484 1.0486-1.098 2.3225-3.2058 2.3349-3.2261 0 0 3.1068-5.2203 4.1341-6.9434.4649-.7794 1.3822-2.0383 2.3882-2.9804 1.7885-1.6791 4.7746-3.68183 8.8395-3.68183 6.4743 0 11.7422 5.26093 11.7422 11.72833 0 6.4673-5.1011 11.4792-11.6127 11.4843-3.7686.0034-7.3384-1.9824-8.898-3.98-.3744-.4795-.9422-1.2013-.9581-1.7757-.0107-.3813.1206-.7472.2377-.9455.5412-.9166 1.6696-2.7872 3.3694-5.5964.2377-.3457.6423-.5761 1.0291-.5812l9.4391.0085c.158 0 .2822.061.346.1711.0675.1135.0604.2559-.0195.3813-.1934.3083-1.4176 2.1874-1.6199 2.4551-.2165.288-.4312.288-.6778.288 0 0-6.0201-.0034-6.2171-.0034-.3708 0-.4861.0373-.6565.3135-.3175.5184-1.2739 2.0874-1.2739 2.0874-.0993.1627-.0922.3389.0178.5083.1685.2305.5606.6032.5606.6032 1.2136 1.2166 3.2221 1.9316 5.1898 1.9316 4.2849 0 7.3154-3.1261 7.3154-7.3874 0-3.997-3.2825-7.2484-7.3154-7.2484-2.2001 0-4.1554.8234-5.8125 2.45-.9457.9285-1.6679 2.1213-2.2481 3.0803 0 0-3.27 5.6354-3.8821 6.5928-1.9375 3.0328-5.4985 6.6503-11.4583 6.6503z"/><path d="m4.47829 31.3293c0 .2999-.2555.5439-.56955.5439h-3.339196c-.314047 0-.569544-.244-.569544-.5439v-.2439-24.49022c0-.32701 0-.42528.285659-.86412.058552-.0898 1.770731-2.35006 2.095431-2.82279.44002-.64216.70084-.64216.97763-.64216h.49857c.33179 0 .60148.25754.60148.57439 0 0 .01065 15.0543.01065 15.8134 0 .2931.16855.3982.31227.3982.12597 0 .25904-.0729.38147-.2084 1.90203-2.1078 7.45554-8.282 7.45554-8.282.3407-.3796.9954-.67778 1.4904-.67778h3.616c.2289 0 .4258.10505.5039.26768.0763.161.0248.3491-.1437.5321l-8.30901 9.2477c-.38147.4236-.38324.6879-.00887 1.0454.0692.0712 7.32428 7.5281 9.74438 10.0289.1508.1559.1934.3423.1171.51-.0834.183-.2928.3067-.5181.3067h-4.0809c-.5003 0-1.1887-.2982-1.5365-.6625-.0639-.0644-6.26498-6.4131-8.39766-8.67-.10114-.1084-.20759-.1627-.31228-.1627-.07452 0-.14371.0289-.19694.0814-.07275.0711-.11356.1796-.11001.2999v8.6191z"/><path d="m115.916 5.81399h-.582v-3.67843h1.465c.91 0 1.361.31853 1.361 1.04541 0 .65741-.431.94545-.997 1.01322l1.095 1.6198h-.655l-1.013-1.59608h-.673v1.59608zm.699-2.06541c.495 0 .937-.03389.937-.59811 0-.45578-.432-.5405-.84-.5405h-.796v1.13861zm-3.384.21857c0-1.83159 1.556-3.181994 3.393-3.181994 1.836 0 3.376 1.350404 3.376 3.181994 0 1.8316-1.556 3.19724-3.376 3.19724-1.821 0-3.393-1.3504-3.393-3.19724zm3.393 2.66522c1.511 0 2.704-1.13014 2.704-2.66522s-1.193-2.65166-2.704-2.65166c-1.512 0-2.72 1.1386-2.72 2.65166s1.192 2.66522 2.72 2.66522z"/></g></svg>